<svg width="17" height="18" viewBox="0 0 17 18" fill="none" xmlns="http://www.w3.org/2000/svg">
<path fill-rule="evenodd" clip-rule="evenodd" d="M3.39445 2.7002C2.78958 2.7002 2.29883 3.1992 2.29883 3.81348V4.46871C2.29883 4.92372 2.47186 5.3613 2.78138 5.69043L6.1734 9.29722L6.17489 9.29495C6.82973 9.96534 7.19816 10.8716 7.19816 11.8165V15.0168C7.19816 15.2307 7.42191 15.3672 7.60762 15.2663L9.53931 14.2137C9.83093 14.0545 10.0129 13.745 10.0129 13.4091V11.8082C10.0129 10.8686 10.3761 9.9661 11.025 9.29722L14.417 5.69043C14.7258 5.3613 14.8988 4.92372 14.8988 4.46871V3.81348C14.8988 3.1992 14.4088 2.7002 13.804 2.7002H3.39445Z" stroke="#130F26" stroke-width="1.5" stroke-linecap="round" stroke-linejoin="round"/>
</svg>
